<svg width="24" height="24" viewBox="0 0 24 24" fill="none" xmlns="http://www.w3.org/2000/svg">
<path fill-rule="evenodd" clip-rule="evenodd" d="M19.0999 19.16C19.6899 18.26 19.9099 17.8 20.3599 16.79C17.0399 15.53 16.5099 10.8 19.7899 8.98999C18.7899 7.72999 17.3799 7 16.0499 7C15.0899 7 14.4299 7.25001 13.8399 7.48001C13.3399 7.67001 12.8899 7.84 12.3299 7.84C11.7299 7.84 11.1999 7.65001 10.6399 7.45001C10.0299 7.23001 9.38994 7 8.58994 7C7.09994 7 5.50994 7.91 4.49994 9.47C3.07994 11.67 3.32995 15.79 5.61995 19.31C6.43995 20.57 7.53995 21.98 8.96995 22C9.56995 22.01 9.95994 21.83 10.3899 21.64C10.8799 21.42 11.4099 21.18 12.3399 21.18C13.2699 21.17 13.7899 21.42 14.2799 21.64C14.6999 21.83 15.0799 22.01 15.6699 22C17.1199 21.98 18.2799 20.42 19.0999 19.16Z" fill="#A0A0A0"/>
<path fill-rule="evenodd" clip-rule="evenodd" d="M15.8399 2C15.9999 3.1 15.5499 4.19001 14.9599 4.95001C14.3299 5.77001 13.2299 6.41 12.1699 6.37C11.9799 5.31 12.4699 4.21999 13.0699 3.48999C13.7399 2.68999 14.8699 2.07 15.8399 2Z" fill="#A0A0A0"/>
</svg>
