<svg width="57" height="57" viewBox="0 0 57 57" fill="none" xmlns="http://www.w3.org/2000/svg">
<path d="M46.1054 39.062C43.8465 41.3665 40.6869 42.6697 37.2643 42.6744C33.8395 42.6812 30.6776 41.3871 28.4188 39.0895C27.3144 37.9692 26.5051 36.6842 26.0021 35.3102C25.5106 33.9613 25.3231 32.5187 25.4488 31.0898C25.5701 29.6951 25.9815 28.3393 26.6605 27.1139C27.3213 25.9159 28.2289 24.8345 29.3492 23.92C31.5441 22.1298 34.3379 21.1627 37.2643 21.1582C40.1908 21.1535 42.9823 22.1161 45.1794 23.8971C46.2975 24.8093 47.2051 25.8861 47.8636 27.0818C48.5426 28.3073 48.9564 29.6608 49.0776 31.0555C49.2033 32.4867 49.0135 33.927 48.522 35.2782C48.019 36.6499 47.2074 37.9372 46.1054 39.062Z" fill="white"/>
<path d="M29.962 31.236C30.0648 29.3727 30.9793 27.7289 32.3556 26.5652C33.7069 25.4197 35.5267 24.7224 37.5089 24.7224C39.4934 24.7246 41.3111 25.422 42.6622 26.5652C44.0386 27.7311 44.953 29.3727 45.0583 31.236C45.1635 33.1519 44.393 34.9329 43.0418 36.2521C41.6654 37.5942 39.7038 38.4378 37.5089 38.4378C35.3141 38.4378 33.3502 37.5942 31.9739 36.2521C30.625 34.9329 29.8568 33.1519 29.962 31.236Z" fill="#005385"/>
<path d="M17.9384 35.0084C17.9521 35.7354 18.1853 37.1529 18.5329 38.2618C19.2667 40.6053 20.5104 42.7749 22.2435 44.6862C24.0222 46.6502 26.2079 48.2277 28.7365 49.3457C31.3955 50.5231 34.2739 51.1245 37.262 51.1175C40.2502 51.113 43.1286 50.5026 45.7853 49.316C48.3116 48.1842 50.4973 46.6022 52.2738 44.6337C54.0045 42.7132 55.2459 40.5413 55.9798 38.1977C56.3456 37.0295 56.5811 35.8246 56.6771 34.606C56.7686 33.4172 56.7297 32.2192 56.5629 31.0372C56.2336 28.7189 55.4311 26.5446 54.1965 24.5624C53.0648 22.7425 51.6108 21.1467 49.88 19.8024L49.8823 19.8001L32.4197 6.39333C32.406 6.3819 32.39 6.36818 32.3763 6.35675C31.2263 5.47882 29.3012 5.48111 28.0414 6.36361C26.7657 7.25526 26.6217 8.72989 27.7534 9.66045L27.7489 9.66273L35.0329 15.5888L12.8263 15.6116H12.7965C10.9629 15.6139 9.19797 16.8188 8.84816 18.3391C8.4915 19.8893 9.73752 21.1741 11.6465 21.1832L11.6442 21.1902L22.8996 21.1673L2.81465 36.5837C2.7895 36.6043 2.76206 36.6225 2.7392 36.6408C0.846161 38.0903 0.233437 40.5046 1.42459 42.0319C2.63632 43.5842 5.21067 43.5865 7.12658 42.0387L18.087 33.0696C18.087 33.0696 17.927 34.2814 17.9384 35.0084ZM46.1054 39.062C43.8466 41.3665 40.6869 42.6697 37.2644 42.6744C33.8395 42.6812 30.6775 41.3871 28.4187 39.0895C27.3144 37.9692 26.5051 36.6842 26.0021 35.3102C25.5106 33.9613 25.3231 32.5187 25.4488 31.0898C25.57 29.6951 25.9815 28.3394 26.6606 27.1139C27.3213 25.9159 28.229 24.8345 29.3493 23.92C31.5441 22.1298 34.3379 21.1627 37.2644 21.1582C40.1907 21.1535 42.9823 22.1161 45.1795 23.8971C46.2974 24.8093 47.2051 25.8862 47.8635 27.0819C48.5425 28.3074 48.9564 29.6608 49.0775 31.0555C49.2033 32.4867 49.0135 33.927 48.5219 35.2782C48.019 36.65 47.2074 37.9372 46.1054 39.062Z" fill="#FF7021"/>
</svg>
