<svg width="24" height="24" viewBox="0 0 24 24" fill="none" xmlns="http://www.w3.org/2000/svg">
<path fill-rule="evenodd" clip-rule="evenodd" d="M15.88 20.9201C15.91 21.0801 15.82 21.25 15.67 21.31C14.54 21.76 13.3 22 12.02 22C9.80999 22 7.76997 21.2901 6.11997 20.0701C5.97997 19.9701 5.94 19.77 6.03 19.62C6.58 18.64 8.72995 15.4901 13.48 13.7301C13.66 13.6601 13.86 13.75 13.92 13.93C15.11 17.12 15.67 19.8201 15.88 20.9201Z" fill="#A0A0A0"/>
<path fill-rule="evenodd" clip-rule="evenodd" d="M21.82 13.89C21.36 16.35 19.98 18.49 18.05 19.95C17.84 20.11 17.54 19.99 17.49 19.74C17.28 18.66 16.77 16.33 15.79 13.56C15.72 13.35 15.86 13.12 16.08 13.09C18.57 12.79 20.75 13.27 21.57 13.49C21.74 13.55 21.85 13.72 21.82 13.89Z" fill="#A0A0A0"/>
<path fill-rule="evenodd" clip-rule="evenodd" d="M21.59 11.82C20.57 11.64 17.97 11.26 15.31 11.55C15.15 11.57 15.01 11.48 14.94 11.33C14.9 11.24 14.87 11.15 14.83 11.06C14.67 10.69 14.5 10.31 14.33 9.94002C14.24 9.76002 14.33 9.54001 14.51 9.46001C17.31 8.25001 18.8699 6.69001 19.4799 5.99001C19.63 5.82001 19.89 5.83003 20.03 6.01003C21.18 7.54003 21.89 9.41001 22 11.43C22.01 11.68 21.81 11.86 21.59 11.82Z" fill="#A0A0A0"/>
<path fill-rule="evenodd" clip-rule="evenodd" d="M18.44 4.79001C17.92 5.42001 16.46 6.91999 13.69 8.01999C13.53 8.08999 13.34 8.01999 13.25 7.85999C11.97 5.53999 10.6099 3.58999 9.97994 2.70999C9.82994 2.49999 9.94997 2.2 10.2 2.16C10.78 2.06 11.39 2.01001 12.01 2.01001C14.43 2.01001 16.66 2.87 18.39 4.31C18.54 4.42 18.56 4.64001 18.44 4.79001Z" fill="#A0A0A0"/>
<path fill-rule="evenodd" clip-rule="evenodd" d="M11.02 8.84003C7.23002 9.79003 3.87998 9.92004 2.65998 9.94004C2.42998 9.94004 2.26001 9.72004 2.32001 9.50004C3.04001 6.70004 4.95999 4.36004 7.48999 3.07004C7.63999 2.99004 7.83 3.04003 7.93 3.18003C8.45 3.90003 9.85999 5.93004 11.24 8.32004C11.35 8.52004 11.25 8.78003 11.02 8.84003Z" fill="#A0A0A0"/>
<path fill-rule="evenodd" clip-rule="evenodd" d="M12.92 11.6C13.01 11.79 12.9 12.02 12.7 12.09C8.27001 13.52 5.62001 17.07 4.82001 18.29C4.69001 18.49 4.41001 18.5 4.26001 18.32C2.86001 16.6 2.01001 14.63 2.01001 12.24V12.06C2.01001 11.86 2.17 11.7 2.37 11.71C3.63 11.76 7.74001 11.59 12.01 10.36C12.17 10.31 12.35 10.39 12.42 10.54C12.59 10.89 12.76 11.24 12.92 11.6Z" fill="#A0A0A0"/>
</svg>
