<svg width="64" height="64" viewBox="0 0 64 64" fill="none" xmlns="http://www.w3.org/2000/svg">
<path d="M38.1877 7H19.4203C18.7982 7 18.2017 7.24908 17.7619 7.69245C17.322 8.13582 17.075 8.73716 17.075 9.36418V19.415L38.1877 31.8301L48.744 36.3207L59.3003 31.8301V19.415L38.1877 7Z" fill="#21A366"/>
<path d="M17.075 19.415H38.1877V31.8301H17.075V19.415Z" fill="#107C41"/>
<path d="M56.9551 7H38.1877V19.415H59.3003V9.36418C59.3003 8.73716 59.0533 8.13582 58.6134 7.69245C58.1736 7.24908 57.5771 7 56.9551 7Z" fill="#33C481"/>
<path d="M38.1877 31.8301H17.075V54.296C17.075 54.923 17.322 55.5243 17.7619 55.9677C18.2017 56.4111 18.7982 56.6602 19.4203 56.6602H56.9551C57.577 56.6602 58.1736 56.4111 58.6134 55.9677C59.0532 55.5243 59.3003 54.923 59.3003 54.296V44.2451L38.1877 31.8301Z" fill="#185C37"/>
<path d="M38.1877 31.8301H59.3003V44.2451H38.1877V31.8301Z" fill="#107C41"/>
<path opacity="0.1" d="M32.3236 15.8679H17.075V49.5658H32.3236C32.945 49.564 33.5405 49.3143 33.9799 48.8713C34.4193 48.4284 34.667 47.8281 34.6689 47.2017V18.232C34.667 17.6056 34.4193 17.0054 33.9799 16.5624C33.5405 16.1195 32.945 15.8698 32.3236 15.8679Z" fill="black"/>
<path opacity="0.2" d="M30.5642 17.6415H17.075V51.3394H30.5642C31.1856 51.3376 31.7811 51.0878 32.2205 50.6449C32.6599 50.202 32.9076 49.6017 32.9095 48.9753V20.0056C32.9076 19.3792 32.6599 18.779 32.2205 18.336C31.7811 17.893 31.1856 17.6433 30.5642 17.6415Z" fill="black"/>
<path opacity="0.2" d="M30.5642 17.6415H17.075V47.7923H30.5642C31.1856 47.7904 31.7811 47.5407 32.2205 47.0978C32.6599 46.6547 32.9076 46.0545 32.9095 45.4281V20.0056C32.9076 19.3792 32.6599 18.779 32.2205 18.336C31.7811 17.893 31.1856 17.6433 30.5642 17.6415Z" fill="black"/>
<path opacity="0.2" d="M28.8048 17.6415H17.075V47.7923H28.8048C29.4262 47.7904 30.0217 47.5407 30.4611 47.0978C30.9005 46.6547 31.1482 46.0545 31.1501 45.4281V20.0056C31.1482 19.3792 30.9005 18.779 30.4611 18.336C30.0217 17.893 29.4262 17.6433 28.8048 17.6415Z" fill="black"/>
<path d="M5.34526 17.6415H28.805C29.427 17.6415 30.0235 17.8905 30.4633 18.3339C30.9031 18.7773 31.1502 19.3786 31.1502 20.0056V43.6545C31.1502 44.2815 30.9031 44.8829 30.4633 45.3262C30.0235 45.7696 29.427 46.0187 28.805 46.0187H5.34526C4.72326 46.0187 4.12674 45.7696 3.68691 45.3262C3.24709 44.8829 3 44.2815 3 43.6545V20.0056C3 19.3786 3.24709 18.7773 3.68691 18.3339C4.12674 17.8905 4.72326 17.6415 5.34526 17.6415Z" fill="#107C41"/>
<path d="M9.21584 40.698L14.9092 31.8053L9.69439 22.9622H13.8905L16.7372 28.6146C16.9988 29.1502 17.1788 29.5498 17.2774 29.8135H17.3143C17.502 29.3855 17.6984 28.9693 17.9037 28.5649L20.9457 22.9622H24.7969L19.4484 31.7556L24.9324 40.698H20.833L17.5448 34.4904C17.3898 34.226 17.2586 33.9482 17.1524 33.6604H17.1031C17.0072 33.9419 16.8797 34.2115 16.7231 34.4638L13.3398 40.698H9.21584Z" fill="white"/>
</svg>
