<svg width="24" height="24" viewBox="0 0 24 24" fill="none" xmlns="http://www.w3.org/2000/svg">
<path d="M12.0001 2H8.67004C6.83004 2 5.34009 3.48999 5.34009 5.32999C5.34009 7.16999 6.83004 8.66 8.67004 8.66H12.0001V2Z" fill="#A0A0A0"/>
<path d="M12.0001 8.67004H8.67004C6.83004 8.67004 5.34009 10.16 5.34009 12C5.34009 13.84 6.83004 15.33 8.67004 15.33H12.0001V8.67004Z" fill="#A0A0A0"/>
<path d="M12.0001 15.33H8.67004C6.83004 15.33 5.34009 16.82 5.34009 18.66C5.34009 20.5 6.83004 21.99 8.67004 21.99C10.51 21.99 12.0001 20.5 12.0001 18.66V15.33Z" fill="#A0A0A0"/>
<path d="M12 2H15.33C17.17 2 18.66 3.48999 18.66 5.32999C18.66 7.16999 17.17 8.66 15.33 8.66H12V2Z" fill="#A0A0A0"/>
<path d="M15.33 8.67004C17.17 8.67004 18.66 10.16 18.66 12C18.66 13.84 17.17 15.33 15.33 15.33C13.49 15.33 12 13.84 12 12C12 10.16 13.49 8.67004 15.33 8.67004Z" fill="#A0A0A0"/>
</svg>
