<svg width="64" height="64" viewBox="0 0 64 64" fill="none" xmlns="http://www.w3.org/2000/svg">
<path d="M24.1383 55.83C28.6307 55.83 32.2767 52.1841 32.2767 47.6917V39.5534H24.1383C19.646 39.5534 16 43.1993 16 47.6917C16 52.1841 19.646 55.83 24.1383 55.83Z" fill="#0ACF83"/>
<path d="M16 31.4151C16 26.9227 19.646 23.2767 24.1383 23.2767H32.2767V39.5534H24.1383C19.646 39.5534 16 35.9074 16 31.4151Z" fill="#A259FF"/>
<path d="M16 15.1383C16 10.646 19.646 7 24.1383 7H32.2767V23.2767H24.1383C19.646 23.2767 16 19.6307 16 15.1383Z" fill="#F24E1E"/>
<path d="M32.2768 7H40.4151C44.9075 7 48.5535 10.646 48.5535 15.1383C48.5535 19.6307 44.9075 23.2767 40.4151 23.2767H32.2768V7Z" fill="#FF7262"/>
<path d="M48.5535 31.4151C48.5535 35.9074 44.9075 39.5534 40.4151 39.5534C35.9228 39.5534 32.2768 35.9074 32.2768 31.4151C32.2768 26.9227 35.9228 23.2767 40.4151 23.2767C44.9075 23.2767 48.5535 26.9227 48.5535 31.4151Z" fill="#1ABCFE"/>
</svg>
