<svg width="64" height="64" viewBox="0 0 64 64" fill="none" xmlns="http://www.w3.org/2000/svg">
<path d="M8.22498 27.6056C8.14816 27.6056 8.07135 27.5287 8.14816 27.4519L8.68589 26.6838C8.76271 26.607 8.83952 26.5302 8.99315 26.5302H18.6722C18.749 26.5302 18.8258 26.607 18.749 26.6838L18.2881 27.3751C18.2113 27.4519 18.1345 27.5287 17.9808 27.5287L8.22498 27.6056ZM4.15365 30.0638C4.07683 30.0638 4.00001 29.9869 4.07683 29.9101L4.61456 29.1419C4.69137 29.0651 4.76819 28.9883 4.92183 28.9883H17.2894C17.3662 28.9883 17.4431 29.0651 17.4431 29.1419L17.2126 29.9101C17.2126 29.9869 17.059 30.0638 16.9822 30.0638H4.15365ZM10.6831 32.5987C10.6063 32.5987 10.5295 32.5219 10.6063 32.445L10.9904 31.7537C11.0672 31.6769 11.1441 31.6001 11.2977 31.6001H16.6749C16.7518 31.6001 16.8286 31.6769 16.8286 31.7537L16.7518 32.3682C16.7518 32.445 16.6749 32.5219 16.5981 32.5219L10.6831 32.5987ZM38.7984 27.0678L34.2662 28.2201C33.8821 28.297 33.8052 28.3738 33.498 27.9128C33.1138 27.4519 32.8066 27.1446 32.1921 26.9142C30.5021 26.0692 28.8121 26.2997 27.2758 27.2983C25.4321 28.4506 24.5103 30.2174 24.5103 32.445C24.5103 34.596 26.0466 36.3628 28.1975 36.67C30.0412 36.9005 31.5775 36.2859 32.8066 34.9032C33.037 34.596 33.2675 34.2887 33.5748 33.9046H28.3512C27.8134 33.9046 27.6598 33.5205 27.8134 33.0596C28.1975 32.2146 28.8121 30.8319 29.1962 30.1406C29.273 29.9869 29.5034 29.6797 29.8875 29.6797H39.7202C39.6434 30.4478 39.6434 31.1392 39.5666 31.9074C39.2593 33.8278 38.5679 35.6714 37.3389 37.2078C35.4184 39.7427 32.8834 41.3559 29.6571 41.8168C26.9685 42.2009 24.5103 41.6632 22.3594 40.05C20.3622 38.5137 19.2099 36.5164 18.9026 34.0582C18.5186 31.1392 19.4403 28.4506 21.2071 26.146C23.1276 23.611 25.6626 21.9979 28.8121 21.4602C31.347 20.9993 33.8052 21.3066 35.9562 22.7661C37.4157 23.6878 38.4143 24.9938 39.1057 26.607C39.1825 26.9142 39.1057 26.991 38.7984 27.0678Z" fill="#00ACD7"/>
<path d="M47.7092 42.0474C45.251 41.9706 43.0233 41.2792 41.1029 39.666C39.4897 38.2833 38.491 36.5165 38.1838 34.4424C37.7229 31.3697 38.5679 28.6811 40.4115 26.2998C42.4088 23.6879 44.7901 22.3821 48.0165 21.7675C50.7819 21.3066 53.3937 21.537 55.6982 23.1502C57.8491 24.6098 59.155 26.607 59.5391 29.2188C60 32.9061 58.9246 35.8251 56.4664 38.3601C54.6996 40.2038 52.4718 41.2792 50.0137 41.8169C49.1687 41.9706 48.4006 41.9706 47.7092 42.0474ZM54.1618 31.1393C54.1618 30.7552 54.1618 30.5247 54.085 30.2174C53.6242 27.5288 51.166 25.9925 48.5542 26.607C46.0192 27.1447 44.406 28.7579 43.7915 31.2929C43.3306 33.367 44.3292 35.5178 46.2497 36.4397C47.7092 37.0542 49.2455 36.9774 50.6282 36.286C52.8559 35.2106 54.0082 33.4438 54.1618 31.1393Z" fill="#00ACD7"/>
</svg>
