<svg width="64" height="64" viewBox="0 0 64 64" fill="none" xmlns="http://www.w3.org/2000/svg">
<g clip-path="url(#clip0_1_566)">
<path fill-rule="evenodd" clip-rule="evenodd" d="M58.611 17.0086C58.6302 17.0794 58.64 17.1524 58.6402 17.2257V28.6197C58.6402 28.7659 58.6015 28.9096 58.5281 29.0361C58.4547 29.1627 58.3491 29.2676 58.2221 29.3404L48.6447 34.8463V45.7595C48.6447 46.0565 48.4866 46.3306 48.2287 46.4802L28.2368 57.9718C28.191 57.9977 28.1411 58.0144 28.0912 58.032C28.0725 58.0383 28.0548 58.0497 28.035 58.0549C27.8953 58.0916 27.7484 58.0916 27.6086 58.0549C27.5858 58.0486 27.565 58.0362 27.5431 58.0279C27.4974 58.0112 27.4495 57.9967 27.4058 57.9718L7.41808 46.4802C7.2911 46.4073 7.1856 46.3024 7.1122 46.1758C7.0388 46.0493 7.0001 45.9057 7 45.7595V11.5775C7 11.5027 7.0104 11.43 7.02912 11.3594C7.03536 11.3355 7.04992 11.3137 7.05824 11.2898C7.07384 11.2462 7.0884 11.2016 7.11128 11.1611C7.12688 11.1341 7.14976 11.1123 7.16848 11.0873C7.1924 11.0541 7.21424 11.0198 7.24232 10.9908C7.26624 10.9669 7.29744 10.9492 7.32448 10.9284C7.35464 10.9035 7.38168 10.8765 7.416 10.8568L17.4114 5.11098C17.538 5.03827 17.6814 5 17.8274 5C17.9734 5 18.1169 5.03827 18.2434 5.11098L28.2378 10.8568H28.2399C28.2732 10.8776 28.3013 10.9035 28.3314 10.9274C28.3585 10.9482 28.3886 10.9669 28.4126 10.9897C28.4417 11.0198 28.4625 11.0541 28.4874 11.0873C28.5051 11.1123 28.529 11.1341 28.5436 11.1611C28.5675 11.2026 28.581 11.2462 28.5977 11.2898C28.606 11.3137 28.6206 11.3355 28.6268 11.3604C28.6459 11.4312 28.6557 11.5042 28.6559 11.5775V32.9272L36.9842 28.1389V17.2246C36.9842 17.1519 36.9946 17.0782 37.0134 17.0086C37.0206 16.9837 37.0342 16.9619 37.0425 16.938C37.0591 16.8944 37.0737 16.8498 37.0966 16.8093C37.1122 16.7823 37.135 16.7604 37.1527 16.7355C37.1777 16.7023 37.1985 16.668 37.2276 16.6389C37.2515 16.6151 37.2817 16.5974 37.3087 16.5766C37.3399 16.5517 37.367 16.5247 37.4002 16.505L47.3967 10.7592C47.5232 10.6864 47.6667 10.648 47.8127 10.648C47.9587 10.648 48.1022 10.6864 48.2287 10.7592L58.2231 16.505C58.2585 16.5258 58.2855 16.5517 58.3167 16.5756C58.3427 16.5964 58.3729 16.6151 58.3968 16.6379C58.4259 16.668 58.4467 16.7023 58.4717 16.7355C58.4904 16.7604 58.5133 16.7823 58.5278 16.8093C58.5518 16.8498 58.5653 16.8944 58.5819 16.938C58.5913 16.9619 58.6048 16.9837 58.611 17.0086ZM56.9741 28.1389V18.6639L53.4766 20.6744L48.6447 23.4523V32.9272L56.9751 28.1389H56.9741ZM46.9797 45.2787V35.7975L42.2269 38.5079L28.6549 46.2424V55.8128L46.9797 45.2787ZM8.66608 13.0158V45.2787L26.9888 55.8118V46.2434L17.4166 40.8341L17.4135 40.832L17.4094 40.8299C17.3771 40.8112 17.3501 40.7842 17.3199 40.7614C17.2939 40.7406 17.2638 40.724 17.2409 40.7011L17.2388 40.698C17.2118 40.6721 17.193 40.6399 17.1702 40.6108C17.1494 40.5828 17.1244 40.5589 17.1078 40.5298L17.1067 40.5267C17.088 40.4955 17.0766 40.4581 17.063 40.4228C17.0495 40.3917 17.0318 40.3626 17.0235 40.3294C17.0131 40.2899 17.011 40.2473 17.0069 40.2068C17.0027 40.1757 16.9944 40.1445 16.9944 40.1134V40.1113V17.8041L12.1636 15.0252L8.66608 13.0158ZM17.8285 6.79121L9.5012 11.5775L17.8264 16.3638L26.1526 11.5764L17.8264 6.79121H17.8285ZM22.159 36.6615L26.9898 33.8847V13.0158L23.4923 15.0262L18.6605 17.8041V38.673L22.159 36.6615ZM47.8127 12.4394L39.4865 17.2257L47.8127 22.0119L56.1379 17.2246L47.8127 12.4394ZM46.9797 23.4523L42.1478 20.6744L38.6503 18.6639V28.1389L43.4811 30.9157L46.9797 32.9272V23.4523ZM27.8208 44.8041L40.0335 37.8423L46.1383 34.3634L37.8183 29.5802L28.2389 35.0872L19.5081 40.1061L27.8208 44.8041Z" fill="#FF2D20"/>
</g>
<defs>
<clipPath id="clip0_1_566">
<rect width="52" height="54" fill="white" transform="translate(7 5)"/>
</clipPath>
</defs>
</svg>
