<svg width="154" height="36" viewBox="0 0 154 36" fill="none" xmlns="http://www.w3.org/2000/svg">
<path d="M19.8222 28.9005C19.8545 25.5962 19.0168 22.9092 17.9512 22.8987C16.8855 22.8883 15.9954 25.5585 15.9632 28.8628C15.9309 32.1671 16.7686 34.8542 17.8342 34.8645C18.8998 34.875 19.7899 32.2048 19.8222 28.9005Z" fill="white"/>
<path d="M13.6418 28.15C15.4556 25.3878 16.2037 22.6744 15.3129 22.0895C14.4221 21.5046 12.2296 23.2696 10.4159 26.0318C8.60216 28.794 7.85401 31.5073 8.74479 32.0923C9.63565 32.6772 11.828 30.9122 13.6418 28.15Z" fill="white"/>
<path d="M8.84099 24.187C11.8602 22.8441 13.9567 20.966 13.5235 19.9923C13.0904 19.0185 10.2918 19.3179 7.27254 20.6609C4.25333 22.0039 2.15688 23.8819 2.59 24.8557C3.0231 25.8294 5.82177 25.53 8.84099 24.187Z" fill="white"/>
<path d="M13.1612 17.2616C13.3233 16.2083 10.8071 14.9469 7.54121 14.4442C4.2752 13.9415 1.49619 14.3879 1.33407 15.4412C1.17196 16.4945 3.68813 17.7558 6.95411 18.2585C10.22 18.7612 12.9991 18.3148 13.1612 17.2616Z" fill="white"/>
<path d="M14.3338 14.7524C15.0395 13.954 13.6044 11.5327 11.1284 9.34438C8.65242 7.1561 6.0731 6.02947 5.36737 6.828C4.66164 7.62653 6.09675 10.0478 8.57279 12.2361C11.0488 14.4244 13.6281 15.551 14.3338 14.7524Z" fill="white"/>
<path d="M16.669 13.286C17.6945 12.9959 17.7963 10.183 16.8966 7.00348C15.9969 3.8239 14.4363 1.48157 13.4108 1.77173C12.3854 2.0619 12.2835 4.87468 13.1832 8.05429C14.0829 11.2338 15.6436 13.5762 16.669 13.286Z" fill="white"/>
<path d="M23.0103 8.15322C23.9726 4.99199 23.9262 2.17774 22.9067 1.86741C21.8872 1.55708 20.2806 3.86817 19.3183 7.0294C18.3561 10.1906 18.4025 13.0049 19.422 13.3152C20.4415 13.6255 22.0481 11.3145 23.0103 8.15322Z" fill="white"/>
<path d="M27.541 12.4247C30.0593 10.2852 31.5415 7.89243 30.8515 7.08029C30.1615 6.26813 27.5606 7.34415 25.0424 9.48356C22.524 11.623 21.0419 14.0158 21.7319 14.828C22.4218 15.6401 25.0227 14.5642 27.541 12.4247Z" fill="white"/>
<path d="M29.0392 18.4694C32.3144 18.0312 34.855 16.8197 34.7136 15.7634C34.5724 14.7072 31.8027 14.2061 28.5274 14.6443C25.2522 15.0825 22.7116 16.2939 22.8529 17.3502C22.9942 18.4065 25.7639 18.9076 29.0392 18.4694Z" fill="white"/>
<path d="M33.2642 25.1575C33.7165 24.1926 31.6575 22.2736 28.6653 20.8713C25.6732 19.469 22.881 19.1146 22.4287 20.0795C21.9765 21.0445 24.0355 22.9635 27.0277 24.3658C30.0198 25.768 32.812 26.1225 33.2642 25.1575Z" fill="white"/>
<path d="M26.9704 32.2775C27.8725 31.7103 27.178 28.9826 25.4191 26.1852C23.6602 23.3878 21.503 21.58 20.6008 22.1472C19.6987 22.7144 20.3932 25.442 22.1521 28.2395C23.9109 31.0369 26.0682 32.8448 26.9704 32.2775Z" fill="white"/>
<path d="M55.688 17.36C56.664 17.568 57.448 18.056 58.04 18.824C58.632 19.576 58.928 20.44 58.928 21.416C58.928 22.824 58.432 23.944 57.44 24.776C56.464 25.592 55.096 26 53.336 26H45.488V9.152H53.072C54.784 9.152 56.12 9.544 57.08 10.328C58.056 11.112 58.544 12.176 58.544 13.52C58.544 14.512 58.28 15.336 57.752 15.992C57.24 16.648 56.552 17.104 55.688 17.36ZM49.592 15.968H52.28C52.952 15.968 53.464 15.824 53.816 15.536C54.184 15.232 54.368 14.792 54.368 14.216C54.368 13.64 54.184 13.2 53.816 12.896C53.464 12.592 52.952 12.44 52.28 12.44H49.592V15.968ZM52.616 22.688C53.304 22.688 53.832 22.536 54.2 22.232C54.584 21.912 54.776 21.456 54.776 20.864C54.776 20.272 54.576 19.808 54.176 19.472C53.792 19.136 53.256 18.968 52.568 18.968H49.592V22.688H52.616ZM73.9323 19.088C73.9323 19.472 73.9083 19.872 73.8603 20.288H64.5723C64.6363 21.12 64.9003 21.76 65.3643 22.208C65.8443 22.64 66.4283 22.856 67.1163 22.856C68.1403 22.856 68.8523 22.424 69.2523 21.56H73.6203C73.3963 22.44 72.9883 23.232 72.3963 23.936C71.8203 24.64 71.0923 25.192 70.2123 25.592C69.3323 25.992 68.3483 26.192 67.2603 26.192C65.9483 26.192 64.7803 25.912 63.7563 25.352C62.7323 24.792 61.9323 23.992 61.3563 22.952C60.7803 21.912 60.4923 20.696 60.4923 19.304C60.4923 17.912 60.7723 16.696 61.3323 15.656C61.9083 14.616 62.7083 13.816 63.7323 13.256C64.7563 12.696 65.9323 12.416 67.2603 12.416C68.5563 12.416 69.7083 12.688 70.7163 13.232C71.7243 13.776 72.5083 14.552 73.0683 15.56C73.6443 16.568 73.9323 17.744 73.9323 19.088ZM69.7323 18.008C69.7323 17.304 69.4923 16.744 69.0123 16.328C68.5323 15.912 67.9323 15.704 67.2123 15.704C66.5243 15.704 65.9403 15.904 65.4603 16.304C64.9963 16.704 64.7083 17.272 64.5963 18.008H69.7323ZM80.2014 8.24V26H76.0974V8.24H80.2014ZM85.2395 11.216C84.5195 11.216 83.9275 11.008 83.4635 10.592C83.0155 10.16 82.7915 9.632 82.7915 9.008C82.7915 8.368 83.0155 7.84 83.4635 7.424C83.9275 6.992 84.5195 6.776 85.2395 6.776C85.9435 6.776 86.5195 6.992 86.9675 7.424C87.4315 7.84 87.6635 8.368 87.6635 9.008C87.6635 9.632 87.4315 10.16 86.9675 10.592C86.5195 11.008 85.9435 11.216 85.2395 11.216ZM87.2795 12.608V26H83.1755V12.608H87.2795ZM94.3576 14.504C94.7416 13.88 95.2936 13.376 96.0136 12.992C96.7336 12.608 97.5576 12.416 98.4856 12.416C99.5896 12.416 100.59 12.696 101.486 13.256C102.382 13.816 103.086 14.616 103.598 15.656C104.126 16.696 104.39 17.904 104.39 19.28C104.39 20.656 104.126 21.872 103.598 22.928C103.086 23.968 102.382 24.776 101.486 25.352C100.59 25.912 99.5896 26.192 98.4856 26.192C97.5416 26.192 96.7176 26.008 96.0136 25.64C95.3096 25.256 94.7576 24.752 94.3576 24.128V26H90.2536V8.24H94.3576V14.504ZM100.214 19.28C100.214 18.256 99.9256 17.456 99.3496 16.88C98.7896 16.288 98.0936 15.992 97.2616 15.992C96.4456 15.992 95.7496 16.288 95.1736 16.88C94.6136 17.472 94.3336 18.28 94.3336 19.304C94.3336 20.328 94.6136 21.136 95.1736 21.728C95.7496 22.32 96.4456 22.616 97.2616 22.616C98.0776 22.616 98.7736 22.32 99.3496 21.728C99.9256 21.12 100.214 20.304 100.214 19.28ZM105.727 19.28C105.727 17.904 105.983 16.696 106.495 15.656C107.023 14.616 107.735 13.816 108.631 13.256C109.527 12.696 110.527 12.416 111.631 12.416C112.575 12.416 113.399 12.608 114.103 12.992C114.823 13.376 115.375 13.88 115.759 14.504V12.608H119.863V26H115.759V24.104C115.359 24.728 114.799 25.232 114.079 25.616C113.375 26 112.551 26.192 111.607 26.192C110.519 26.192 109.527 25.912 108.631 25.352C107.735 24.776 107.023 23.968 106.495 22.928C105.983 21.872 105.727 20.656 105.727 19.28ZM115.759 19.304C115.759 18.28 115.471 17.472 114.895 16.88C114.335 16.288 113.647 15.992 112.831 15.992C112.015 15.992 111.319 16.288 110.743 16.88C110.183 17.456 109.903 18.256 109.903 19.28C109.903 20.304 110.183 21.12 110.743 21.728C111.319 22.32 112.015 22.616 112.831 22.616C113.647 22.616 114.335 22.32 114.895 21.728C115.471 21.136 115.759 20.328 115.759 19.304ZM130.992 12.464C132.56 12.464 133.808 12.976 134.736 14C135.68 15.008 136.152 16.4 136.152 18.176V26H132.072V18.728C132.072 17.832 131.84 17.136 131.376 16.64C130.912 16.144 130.288 15.896 129.504 15.896C128.72 15.896 128.096 16.144 127.632 16.64C127.168 17.136 126.936 17.832 126.936 18.728V26H122.832V12.608H126.936V14.384C127.352 13.792 127.912 13.328 128.616 12.992C129.32 12.64 130.112 12.464 130.992 12.464ZM144.092 12.416C145.036 12.416 145.86 12.608 146.564 12.992C147.284 13.376 147.836 13.88 148.22 14.504V12.608H152.324V25.976C152.324 27.208 152.076 28.32 151.58 29.312C151.1 30.32 150.356 31.12 149.348 31.712C148.356 32.304 147.116 32.6 145.628 32.6C143.644 32.6 142.036 32.128 140.804 31.184C139.572 30.256 138.868 28.992 138.692 27.392H142.748C142.876 27.904 143.18 28.304 143.66 28.592C144.14 28.896 144.732 29.048 145.436 29.048C146.284 29.048 146.956 28.8 147.452 28.304C147.964 27.824 148.22 27.048 148.22 25.976V24.08C147.82 24.704 147.268 25.216 146.564 25.616C145.86 26 145.036 26.192 144.092 26.192C142.988 26.192 141.988 25.912 141.092 25.352C140.196 24.776 139.484 23.968 138.956 22.928C138.444 21.872 138.188 20.656 138.188 19.28C138.188 17.904 138.444 16.696 138.956 15.656C139.484 14.616 140.196 13.816 141.092 13.256C141.988 12.696 142.988 12.416 144.092 12.416ZM148.22 19.304C148.22 18.28 147.932 17.472 147.356 16.88C146.796 16.288 146.108 15.992 145.292 15.992C144.476 15.992 143.78 16.288 143.204 16.88C142.644 17.456 142.364 18.256 142.364 19.28C142.364 20.304 142.644 21.12 143.204 21.728C143.78 22.32 144.476 22.616 145.292 22.616C146.108 22.616 146.796 22.32 147.356 21.728C147.932 21.136 148.22 20.328 148.22 19.304Z" fill="white"/>
</svg>
