<svg width="64" height="64" viewBox="0 0 64 64" fill="none" xmlns="http://www.w3.org/2000/svg">
<path d="M32.0219 8.15926C19.8133 8.15926 20.5756 13.4536 20.5756 13.4536L20.5892 18.9387H32.2395V20.5854H15.9618C15.9618 20.5854 8.14966 19.6994 8.14966 32.0177C8.14966 44.3364 14.9683 43.8995 14.9683 43.8995H19.0377V38.1832C19.0377 38.1832 18.8183 31.3644 25.7475 31.3644H37.3026C37.3026 31.3644 43.7946 31.4693 43.7946 25.0901V14.5426C43.7946 14.5426 44.7806 8.15926 32.0219 8.15926ZM25.5979 11.8479C25.8732 11.8476 26.1458 11.9017 26.4002 12.0069C26.6546 12.1121 26.8857 12.2665 27.0804 12.4612C27.2751 12.6558 27.4294 12.887 27.5347 13.1414C27.64 13.3958 27.694 13.6684 27.6938 13.9437C27.694 14.2191 27.64 14.4917 27.5347 14.7461C27.4294 15.0005 27.2751 15.2317 27.0804 15.4263C26.8857 15.621 26.6546 15.7754 26.4002 15.8806C26.1458 15.9858 25.8732 16.0399 25.5979 16.0396C25.3226 16.0399 25.0499 15.9858 24.7955 15.8806C24.5411 15.7754 24.31 15.621 24.1153 15.4263C23.9206 15.2317 23.7662 15.0005 23.661 14.7461C23.5558 14.4917 23.5018 14.2191 23.502 13.9437C23.5018 13.6684 23.5558 13.3958 23.661 13.1414C23.7662 12.887 23.9206 12.6558 24.1153 12.4612C24.31 12.2665 24.5411 12.1121 24.7955 12.0069C25.0499 11.9017 25.3226 11.8476 25.5979 11.8479Z" fill="url(#paint0_linear_1_562)"/>
<path d="M32.3683 56C44.5768 56 43.8145 50.7057 43.8145 50.7057L43.8009 45.2208H32.1504V43.574H48.4281C48.4281 43.574 56.2403 44.46 56.2403 32.1414C56.2403 19.8229 49.4216 20.2598 49.4216 20.2598H45.3522V25.9759C45.3522 25.9759 45.5716 32.7946 38.6424 32.7946H27.0873C27.0873 32.7946 20.5954 32.6897 20.5954 39.0691V49.6169C20.5954 49.6169 19.6098 56 32.3683 56ZM38.7923 52.3118C38.517 52.312 38.2443 52.258 37.99 52.1527C37.7355 52.0475 37.5044 51.8931 37.3098 51.6984C37.1151 51.5038 36.9607 51.2727 36.8555 51.0182C36.7502 50.7638 36.6962 50.4912 36.6964 50.2158C36.6962 49.9406 36.7502 49.6679 36.8554 49.4135C36.9606 49.159 37.115 48.9278 37.3097 48.7332C37.5043 48.5385 37.7355 48.3841 37.9899 48.2788C38.2443 48.1736 38.517 48.1195 38.7923 48.1198C39.0676 48.1195 39.3402 48.1736 39.5947 48.2788C39.8491 48.3841 40.0802 48.5384 40.2749 48.7331C40.4696 48.9278 40.6239 49.1589 40.7291 49.4133C40.8344 49.6678 40.8885 49.9404 40.8882 50.2157C40.8885 50.491 40.8344 50.7636 40.7291 51.018C40.6239 51.2724 40.4696 51.5036 40.2749 51.6982C40.0802 51.8929 39.8491 52.0473 39.5947 52.1525C39.3402 52.2578 39.0676 52.312 38.7923 52.3118Z" fill="url(#paint1_linear_1_562)"/>
<defs>
<linearGradient id="paint0_linear_1_562" x1="12.7712" y1="12.4622" x2="36.6036" y2="36.0569" gradientUnits="userSpaceOnUse">
<stop stop-color="#387EB8"/>
<stop offset="1" stop-color="#366994"/>
</linearGradient>
<linearGradient id="paint1_linear_1_562" x1="27.3993" y1="27.6132" x2="52.9925" y2="51.8073" gradientUnits="userSpaceOnUse">
<stop stop-color="#FFE052"/>
<stop offset="1" stop-color="#FFC331"/>
</linearGradient>
</defs>
</svg>
