<svg width="64" height="64" viewBox="0 0 64 64" fill="none" xmlns="http://www.w3.org/2000/svg">
<path d="M57 31.139C57 27.7908 52.7691 24.6177 46.2823 22.6499C47.7793 16.0977 47.1139 10.8848 44.1824 9.2158C43.5067 8.82431 42.7167 8.63887 41.8538 8.63887V10.9363C42.3321 10.9363 42.7167 11.029 43.039 11.2041C44.4527 12.0077 45.0661 15.0675 44.5879 19.0029C44.4735 19.9714 44.2864 20.9913 44.0577 22.0318C42.0202 21.5373 39.7955 21.1561 37.4566 20.9088C36.0532 19.0029 34.5979 17.2721 33.1321 15.7578C36.521 12.6361 39.702 10.926 41.8643 10.926V8.62857C39.0055 8.62857 35.2631 10.6478 31.4792 14.1506C27.6952 10.6684 23.9529 8.66978 21.0942 8.66978V10.9672C23.246 10.9672 26.4375 12.667 29.8264 15.768C28.3709 17.2825 26.9156 19.0029 25.533 20.9088C23.1837 21.1561 20.9591 21.5373 18.9216 22.0421C18.6824 21.0119 18.5057 20.0126 18.381 19.0545C17.8924 15.119 18.4953 12.0592 19.8987 11.2454C20.2105 11.0599 20.616 10.9775 21.0942 10.9775V8.68008C20.221 8.68008 19.4309 8.86553 18.7448 9.25701C15.8237 10.926 15.1688 16.1286 16.6761 22.6603C10.2102 24.6383 6 27.8011 6 31.139C6 34.4872 10.2309 37.6603 16.7177 39.6281C15.2207 46.1803 15.8861 51.3932 18.8176 53.0622C19.4933 53.4537 20.2833 53.6391 21.1565 53.6391C24.0153 53.6391 27.7576 51.6199 31.5416 48.1171C35.3255 51.5993 39.0679 53.5979 41.9267 53.5979C42.7998 53.5979 43.5899 53.4124 44.276 53.0209C47.1971 51.352 47.852 46.1493 46.3447 39.6177C52.7898 37.65 57 34.4769 57 31.139ZM43.4651 24.2674C43.0805 25.5964 42.6023 26.9666 42.0618 28.3368C41.6355 27.5126 41.1886 26.6884 40.7 25.8643C40.2218 25.0401 39.7124 24.2365 39.203 23.4535C40.6792 23.6699 42.1033 23.9378 43.4651 24.2674ZM38.704 35.2393C37.8932 36.6301 37.0616 37.9488 36.1988 39.1748C34.6498 39.3087 33.0801 39.3808 31.5 39.3808C29.9303 39.3808 28.3606 39.3087 26.822 39.185C25.9592 37.9591 25.1172 36.6507 24.3063 35.2702C23.5163 33.9206 22.799 32.5504 22.1441 31.1699C22.7886 29.7894 23.5163 28.4089 24.296 27.0593C25.1068 25.6685 25.9384 24.3498 26.8012 23.1238C28.3502 22.99 29.9199 22.9178 31.5 22.9178C33.0697 22.9178 34.6394 22.9899 36.178 23.1136C37.0408 24.3395 37.8828 25.6479 38.6937 27.0284C39.4837 28.378 40.201 29.7482 40.8559 31.1287C40.201 32.5092 39.4837 33.8897 38.704 35.2393ZM42.0618 33.9C42.6231 35.2805 43.1013 36.661 43.4964 38.0003C42.1345 38.33 40.7 38.6081 39.2134 38.8244C39.7228 38.0312 40.2322 37.2173 40.7104 36.3828C41.1886 35.5586 41.6355 34.7242 42.0618 33.9ZM31.5208 44.8925C30.554 43.9035 29.5872 42.8012 28.6309 41.5958C29.5664 41.6369 30.5228 41.6679 31.4896 41.6679C32.4667 41.6679 33.4336 41.6473 34.3796 41.5958C33.4439 42.8012 32.4772 43.9035 31.5208 44.8925ZM23.7866 38.8244C22.3105 38.6081 20.8862 38.3402 19.5244 38.0106C19.9091 36.6816 20.3873 35.3114 20.9279 33.9412C21.3541 34.7654 21.8011 35.5895 22.2897 36.4137C22.7782 37.2379 23.2772 38.0415 23.7866 38.8244ZM31.4688 17.3855C32.4356 18.3745 33.4024 19.4768 34.3588 20.6822C33.4231 20.641 32.4667 20.6101 31.5 20.6101C30.5228 20.6101 29.5561 20.6307 28.6101 20.6822C29.5457 19.4768 30.5124 18.3745 31.4688 17.3855ZM23.7762 23.4535C23.2668 24.2468 22.7574 25.0606 22.2793 25.8952C21.8011 26.7194 21.3541 27.5435 20.9279 28.3677C20.3664 26.9872 19.8883 25.6067 19.4933 24.2674C20.855 23.948 22.2896 23.6699 23.7762 23.4535ZM14.3683 36.3519C10.6883 34.7963 8.30778 32.7565 8.30778 31.139C8.30778 29.5216 10.6883 27.4714 14.3683 25.9261C15.2624 25.5448 16.2395 25.2049 17.2478 24.8856C17.8404 26.9048 18.6201 29.0065 19.5868 31.1596C18.6304 33.3024 17.8612 35.3938 17.279 37.4028C16.2499 37.0834 15.2727 36.7331 14.3683 36.3519ZM19.961 51.0739C18.5473 50.2702 17.934 47.2105 18.4121 43.275C18.5265 42.3066 18.7136 41.2867 18.9423 40.2462C20.9798 40.7407 23.2045 41.1219 25.5435 41.3692C26.9468 43.275 28.4021 45.0058 29.8679 46.5202C26.479 49.6419 23.298 51.352 21.1357 51.352C20.6679 51.3417 20.2729 51.249 19.961 51.0739ZM44.619 43.2235C45.1076 47.159 44.5047 50.2188 43.1013 51.0326C42.7895 51.2181 42.384 51.3005 41.9058 51.3005C39.754 51.3005 36.5625 49.6006 33.1736 46.4997C34.6291 44.9852 36.0844 43.2648 37.467 41.3588C39.8163 41.1115 42.0409 40.7304 44.0784 40.2256C44.3176 41.2661 44.5047 42.2654 44.619 43.2235ZM48.6213 36.3519C47.7273 36.7331 46.7501 37.0731 45.7417 37.3924C45.1492 35.3732 44.3696 33.2715 43.4028 31.1184C44.3592 28.9755 45.1285 26.8842 45.7105 24.8752C46.7397 25.1946 47.7169 25.5448 48.6317 25.9261C52.3117 27.4817 54.6922 29.5216 54.6922 31.139C54.6818 32.7565 52.3012 34.8066 48.6213 36.3519Z" fill="#61DAFB"/>
<path d="M31.4896 35.8471C34.1133 35.8471 36.2402 33.7393 36.2402 31.139C36.2402 28.5388 34.1133 26.4309 31.4896 26.4309C28.8658 26.4309 26.7389 28.5388 26.7389 31.139C26.7389 33.7393 28.8658 35.8471 31.4896 35.8471Z" fill="#61DAFB"/>
</svg>
