<svg width="644" height="221" viewBox="0 0 644 221" fill="none" xmlns="http://www.w3.org/2000/svg">
<ellipse opacity="0.98" cx="116.441" cy="13.7594" rx="3.17257" ry="2.37943" transform="rotate(-153 116.441 13.7594)" fill="#D79468"/>
<ellipse opacity="0.95" cx="342.897" cy="44.7862" rx="4.65311" ry="3.48983" transform="rotate(74 342.897 44.7862)" fill="#D79468"/>
<ellipse opacity="0.75" cx="602.937" cy="3.13538" rx="3.91284" ry="2.93463" transform="rotate(177 602.937 3.13538)" fill="#D79468"/>
<ellipse opacity="0.92" cx="109.473" cy="93.5266" rx="6.18652" ry="4.63989" transform="rotate(-1 109.473 93.5266)" fill="#D79468"/>
<ellipse opacity="0.97" cx="214.298" cy="66.627" rx="5.44625" ry="4.08469" transform="rotate(-144 214.298 66.627)" fill="#D79468"/>
<ellipse opacity="0.95" cx="591.64" cy="75.2709" rx="3.27833" ry="2.45874" transform="rotate(71 591.64 75.2709)" fill="#D79468"/>
<ellipse opacity="0.91" cx="6.23093" cy="116.662" rx="5.76351" ry="4.32263" transform="rotate(-113 6.23093 116.662)" fill="#D79468"/>
<ellipse opacity="0.9" cx="330.202" cy="157.248" rx="5.97501" ry="4.48126" transform="rotate(106 330.202 157.248)" fill="#D79468"/>
<ellipse opacity="0.97" cx="637.349" cy="183.951" rx="6.29227" ry="4.7192" transform="rotate(-111 637.349 183.951)" fill="#D79468"/>
<path opacity="0.71" d="M90.8458 71.6434L93.4963 74.5746L96.9797 72.9166L95.7446 76.2353L98.4115 79.3388L94.3489 79.3329L91.7698 82.9525L91.7917 79.3979L87.5589 77.1567L91.1098 76.3084L90.8458 71.6434Z" fill="#E95098"/>
<path opacity="0.96" d="M210.468 29.0126L211.047 34.4081L216.254 35.3778L212.204 38.0676L212.661 43.6677L208.153 40.3822L202.367 42.3216L205.26 38.3905L202.367 32.4845L206.996 34.4081L210.468 29.0126Z" fill="#E95098"/>
<path d="M398.164 45.1124L400.542 49.051L404.891 47.93L402.743 51.4482L405.101 55.5873L400.46 54.6781L396.708 58.2417L397.523 54.1843L393.183 50.6829L397.43 50.5023L398.164 45.1124Z" fill="#E95098"/>
<path opacity="0.85" d="M164.383 114.223L166.571 109.713L162.965 106.403L167.456 106.279L169.839 101.667L171.763 106.448L177.246 107.762L173.054 109.425L172.43 115.469L169.745 111.696L164.383 114.223Z" fill="#E95098"/>
<path opacity="0.99" d="M290.212 119.462L287.066 113.32L280.441 114.542L284.024 109.503L280.929 103.062L287.779 104.908L293.765 99.9686L292.121 105.955L298.248 111.648L291.875 111.474L290.212 119.462Z" fill="#E95098"/>
<path opacity="0.92" d="M425.729 205.621L428.715 209.426L433.109 207.699L431.318 211.645L434.309 215.662L429.349 215.308L425.892 219.507L426.222 215.169L421.245 212.071L425.653 211.339L425.729 205.621Z" fill="#E95098"/>
<path opacity="0.89" d="M45.1438 200.92L42.2995 194.568L35.5624 195.449L39.4373 190.563L36.6595 183.913L43.4609 186.134L49.7509 181.475L47.7797 187.417L53.6498 193.474L47.2405 192.963L45.1438 200.92Z" fill="#E95098"/>
<path opacity="0.91" d="M300.83 178.901L299.974 184.379L304.857 186.713L300.148 188.296L299.119 193.944L295.539 189.51L289.315 189.893L293.21 186.779L291.916 180.185L295.976 183.308L300.83 178.901Z" fill="#E95098"/>
<path opacity="0.85" d="M415.603 183.244L413.432 180.376L410.141 181.603L411.524 178.691L409.352 175.664L413.036 175.992L415.663 172.914L415.361 176.136L419.022 178.505L415.734 178.992L415.603 183.244Z" fill="#E95098"/>
<path opacity="0.89" d="M57.3524 84.8798L41.1698 83.1996L41.649 92.758L54.3623 97.87L57.3524 84.8798Z" fill="#B096F4"/>
<path opacity="0.79" d="M302.041 27.6697L279.807 34.925L286.025 47.197L305.709 46.477L302.041 27.6697Z" fill="#B096F4"/>
<path opacity="0.81" d="M486.521 147.584L472.084 147.35L473.247 155.764L484.882 159.3L486.521 147.584Z" fill="#B096F4"/>
<path opacity="0.77" d="M123.433 132.232L105.668 127.827L104.705 138.55L118.068 146.236L123.433 132.232Z" fill="#B096F4"/>
<path opacity="0.9" d="M396.027 92.4589L382.482 106.52L391.875 113.129L406.101 104.883L396.027 92.4589Z" fill="#B096F4"/>
<path opacity="0.73" d="M585.573 64.4825L578.081 46.8949L568.531 52.8322L570.52 68.8096L585.573 64.4825Z" fill="#B096F4"/>
<path opacity="0.83" d="M39.7489 42.3352L29.3399 29.047L22.5517 36.2934L27.8991 49.4659L39.7489 42.3352Z" fill="#B096F4"/>
<path opacity="0.74" d="M221.987 144.777L243.262 146.611L242.414 134.079L225.613 127.662L221.987 144.777Z" fill="#B096F4"/>
<path opacity="0.93" d="M511.131 99.5114L525.128 108.576L529.139 99.6238L519.907 89.039L511.131 99.5114Z" fill="#B096F4"/>
</svg>
