<svg width="16" height="16" viewBox="0 0 16 16" fill="none" xmlns="http://www.w3.org/2000/svg">
<path fill-rule="evenodd" clip-rule="evenodd" d="M8.00044 0C5.8788 0.000693987 3.84426 0.843817 2.34404 2.34404C0.843817 3.84426 0.000693987 5.8788 0 8.00044C0.000693987 10.1221 0.843817 12.1566 2.34404 13.6568C3.84426 15.1571 5.8788 16.0002 8.00044 16.0009C10.1219 15.9999 12.1562 15.1567 13.6563 13.6565C15.1563 12.1563 15.9993 10.1219 16 8.00044C15.9993 5.87895 15.1563 3.84455 13.6563 2.34435C12.1562 0.844151 10.1219 0.000925288 8.00044 0ZM11.7873 6.33262C12.0709 6.04898 12.0709 5.58817 11.7873 5.30366C11.5036 5.01915 11.0428 5.02002 10.7592 5.30366L6.90951 9.15333L5.2417 7.48639C4.95805 7.20275 4.49724 7.20275 4.21273 7.48639C3.92822 7.77003 3.92909 8.23084 4.21273 8.51448L6.39459 10.6963C6.67823 10.98 7.13904 10.98 7.42355 10.6963L11.7873 6.33262Z" fill="#00A656"/>
</svg>
