<svg width="24" height="24" viewBox="0 0 24 24" fill="none" xmlns="http://www.w3.org/2000/svg">
<path d="M13.73 3.51001L15.49 7.03001C15.73 7.52001 16.37 7.99001 16.91 8.08001L20.1 8.61001C22.14 8.95001 22.62 10.43 21.15 11.89L18.67 14.37C18.25 14.79 18.02 15.6 18.15 16.18L18.86 19.25C19.42 21.68 18.13 22.62 15.98 21.35L12.99 19.58C12.45 19.26 11.56 19.26 11.01 19.58L8.02003 21.35C5.88003 22.62 4.58003 21.67 5.14003 19.25L5.85003 16.18C5.98003 15.6 5.75003 14.79 5.33003 14.37L2.85003 11.89C1.39003 10.43 1.86003 8.95001 3.90003 8.61001L7.09003 8.08001C7.62003 7.99001 8.26003 7.52001 8.50003 7.03001L10.26 3.51001C11.22 1.60001 12.78 1.60001 13.73 3.51001Z" fill="#292D32"/>
<path d="M13.73 3.51001L15.49 7.03001C15.73 7.52001 16.37 7.99001 16.91 8.08001L20.1 8.61001C22.14 8.95001 22.62 10.43 21.15 11.89L18.67 14.37C18.25 14.79 18.02 15.6 18.15 16.18L18.86 19.25C19.42 21.68 18.13 22.62 15.98 21.35L12.99 19.58C12.45 19.26 11.56 19.26 11.01 19.58L8.02003 21.35C5.88003 22.62 4.58003 21.67 5.14003 19.25L5.85003 16.18C5.98003 15.6 5.75003 14.79 5.33003 14.37L2.85003 11.89C1.39003 10.43 1.86003 8.95001 3.90003 8.61001L7.09003 8.08001C7.62003 7.99001 8.26003 7.52001 8.50003 7.03001L10.26 3.51001C11.22 1.60001 12.78 1.60001 13.73 3.51001Z" fill="url(#paint0_linear_1_360)"/>
<defs>
<linearGradient id="paint0_linear_1_360" x1="2.0011" y1="11.9966" x2="22.0033" y2="11.9966" gradientUnits="userSpaceOnUse">
<stop stop-color="#B05CB0"/>
<stop offset="1" stop-color="#FCB16B"/>
</linearGradient>
</defs>
</svg>
